<?xml version="1.0" standalone="no"?>
<!DOCTYPE svg PUBLIC "-//W3C//DTD SVG 20010904//EN"
 "http://www.w3.org/TR/2001/REC-SVG-20010904/DTD/svg10.dtd">
<svg version="1.0" xmlns="http://www.w3.org/2000/svg"
 width="512.000000pt" height="512.000000pt" viewBox="0 0 512.000000 512.000000"
 preserveAspectRatio="xMidYMid meet">
<metadata>
Created by potrace 1.11, written by Peter Selinger 2001-2013
</metadata>
<g transform="translate(0.000000,512.000000) scale(0.100000,-0.100000)"
fill="#000000" stroke="none">
<path d="M685 4306 c-113 -27 -224 -109 -290 -211 -65 -102 -68 -120 -73 -442
l-4 -293 202 0 c224 0 250 -6 269 -61 8 -23 11 -314 11 -986 0 -873 -1 -957
-17 -983 -9 -16 -27 -33 -40 -39 -15 -7 -101 -11 -224 -11 l-200 0 1 -269 c1
-291 7 -338 54 -430 37 -72 124 -162 191 -197 29 -16 51 -33 48 -38 -3 -5 -1
-6 5 -2 6 3 36 -1 68 -9 50 -13 290 -15 1883 -14 1809 0 1827 0 1891 21 119
37 223 122 279 228 55 103 61 147 61 442 l0 268 -194 0 c-115 0 -206 4 -225
11 -64 22 -61 -30 -61 1039 0 640 3 970 10 970 6 0 10 5 10 11 0 6 8 18 17 27
14 15 46 17 230 20 l214 3 -2 272 c-1 298 -6 337 -59 436 -53 99 -142 177
-255 222 l-60 24 -1845 2 c-1425 1 -1856 -1 -1895 -11z m435 -466 l0 -160
-160 0 -160 0 0 160 0 160 160 0 160 0 0 -160z m800 0 l0 -160 -160 0 -160 0
0 160 0 160 160 0 160 0 0 -160z m800 0 l0 -160 -160 0 -160 0 0 160 0 160
160 0 160 0 0 -160z m800 0 l0 -160 -160 0 -160 0 0 160 0 160 160 0 160 0 0
-160z m800 0 l0 -160 -160 0 -160 0 0 160 0 160 160 0 160 0 0 -160z m-537
-491 c13 -6 31 -23 40 -39 16 -26 17 -110 17 -989 0 -669 -3 -967 -11 -984 -6
-13 -23 -31 -39 -40 -26 -16 -126 -17 -1218 -17 -654 0 -1204 3 -1222 6 -21 5
-38 17 -51 38 -18 30 -19 67 -19 1001 1 904 2 971 18 991 9 11 26 26 37 32 28
16 2413 17 2448 1z m-2663 -2549 l0 -160 -160 0 -160 0 0 160 0 160 160 0 160
0 0 -160z m800 0 l0 -160 -160 0 -160 0 0 160 0 160 160 0 160 0 0 -160z m800
0 l0 -160 -160 0 -160 0 0 160 0 160 160 0 160 0 0 -160z m800 0 l0 -160 -160
0 -160 0 0 160 0 160 160 0 160 0 0 -160z m800 0 l0 -160 -160 0 -160 0 0 160
0 160 160 0 160 0 0 -160z"/>
<path d="M1980 3033 c-8 -3 -25 -15 -37 -26 l-23 -20 0 -663 0 -663 23 -26
c49 -57 41 -60 616 229 746 375 764 384 784 407 26 32 22 75 -10 107 -15 15
-27 31 -25 35 1 5 -2 6 -8 2 -10 -6 -142 54 -148 68 -2 4 -9 7 -14 7 -6 0 -77
33 -157 74 -80 40 -326 164 -545 275 -220 110 -409 201 -420 200 -12 0 -28 -3
-36 -6z"/>
</g>
</svg>
